<?xml version="1.0" encoding="UTF-8"?>
<svg id="Layer_1" data-name="Layer 1" xmlns="http://www.w3.org/2000/svg" viewBox="0 0 360 360">
  <defs>
    <style>
      .cls-1 {
        fill: none;
        stroke: #bcbec0;
        stroke-miterlimit: 10;
        stroke-width: .67px;
      }

      .cls-2 {
        fill: #231f20;
      }
    </style>
  </defs>
  <g>
    <path class="cls-2"
      d="m88.76,111.99h57.17c1.57,0,3.02.23,4.33.7,1.31.47,2.37,1.14,3.19,2.01s1.36,1.94,1.62,3.19c.26,1.25.16,2.67-.31,4.24l-6.56,22.99c-.41,1.4-1.08,2.67-2.01,3.8-.93,1.14-2.01,2.13-3.23,2.97-1.22.85-2.55,1.54-3.98,2.1-1.43.55-2.84.95-4.24,1.18l9.88,15.12h-20.54l-10.49-15.04h-11.71l-4.28,15.04h-18.1l13.46-47.03-4.2-11.28Zm17.66,27.54h25.26l3.41-11.8h-25.26l-3.41,11.8Z" />
    <path class="cls-2"
      d="m164.9,123.27l-4.2-11.28h62.42l-1.84,6.38c-.29.99-.67,2.03-1.14,3.1-.47,1.08-1.01,2.08-1.62,3.02-.61.93-1.31,1.7-2.1,2.32s-1.62.92-2.49.92h-32.17l-1.66,5.59h31.56l-4.46,15.74h-31.56l-1.57,5.51h36.89l-4.55,15.74h-54.99l13.46-47.03Z" />
    <path class="cls-2"
      d="m228.8,111.99h57.17c1.57,0,3.02.23,4.33.7,1.31.47,2.37,1.14,3.19,2.01.82.87,1.36,1.94,1.62,3.19s.16,2.67-.31,4.24l-6.56,22.99c-.41,1.4-1.08,2.67-2.01,3.8-.93,1.14-2.01,2.13-3.23,2.97-1.22.85-2.55,1.54-3.98,2.1-1.43.55-2.84.95-4.24,1.18l9.88,15.12h-20.54l-10.49-15.04h-11.71l-4.28,15.04h-18.1l13.46-47.03-4.2-11.28Zm17.66,27.54h25.26l3.41-11.8h-25.26l-3.41,11.8Z" />
  </g>
  <g>
    <path class="cls-2"
      d="m78.93,174.67h57.18c1.57,0,3.02.23,4.33.7,1.31.47,2.37,1.14,3.19,2.01.82.87,1.35,1.94,1.62,3.19.26,1.25.16,2.67-.31,4.24l-10.93,38.03c-.47,1.57-1.18,2.99-2.14,4.24s-2.1,2.32-3.41,3.19c-1.31.88-2.75,1.54-4.33,2.01-1.57.47-3.15.7-4.72.7h-49.75l13.46-47.04-4.2-11.28Zm46.34,15.74h-25.27l-7.69,26.84h25.27l7.69-26.84Z" />
    <path class="cls-2"
      d="m170.29,185.95l-4.2-11.28h36.81l8.66,58.31h-20.02l-1.14-8.22h-28.15l-5.77,8.22-27.54,10.49,41.35-57.53Zm3.23,22.99h14.69l-2.27-17.31-12.42,17.31Z" />
    <path class="cls-2"
      d="m290.58,184.81l-10.93,38.03c-.47,1.57-1.18,2.99-2.14,4.24s-2.1,2.32-3.41,3.19c-1.31.88-2.75,1.54-4.33,2.01s-3.15.7-4.72.7h-38.03c-1.57,0-3-.23-4.28-.7-1.28-.47-2.33-1.14-3.15-2.01-.82-.87-1.37-1.94-1.66-3.19-.29-1.25-.2-2.67.26-4.24l10.93-38.03c.47-1.57,1.18-2.99,2.14-4.24.96-1.25,2.1-2.32,3.41-3.19s2.75-1.54,4.33-2.01c1.57-.47,3.15-.7,4.72-.7h38.03c1.57,0,3.02.23,4.33.7,1.31.47,2.37,1.14,3.19,2.01.82.87,1.36,1.94,1.62,3.19.26,1.25.16,2.67-.31,4.24Zm-27.36,32.44l7.69-26.84h-25.27l-7.69,26.84h25.27Z" />
  </g>
  <g>
    <g>
      <path class="cls-1"
        d="m85.38,108.04h57.17c1.57,0,3.02.23,4.33.7,1.31.47,2.37,1.14,3.19,2.01s1.36,1.94,1.62,3.19c.26,1.25.16,2.67-.31,4.24l-6.56,22.99c-.41,1.4-1.08,2.67-2.01,3.8-.93,1.14-2.01,2.13-3.23,2.97-1.22.85-2.55,1.54-3.98,2.1-1.43.55-2.84.95-4.24,1.18l9.88,15.12h-20.54l-10.49-15.04h-11.71l-4.28,15.04h-18.1l13.46-47.03-4.2-11.28Zm17.66,27.54h25.26l3.41-11.8h-25.26l-3.41,11.8Z" />
      <path class="cls-1"
        d="m161.53,119.32l-4.2-11.28h62.42l-1.84,6.38c-.29.99-.67,2.03-1.14,3.1-.47,1.08-1.01,2.08-1.62,3.02-.61.93-1.31,1.7-2.1,2.32s-1.62.92-2.49.92h-32.17l-1.66,5.59h31.56l-4.46,15.74h-31.56l-1.57,5.51h36.89l-4.55,15.74h-54.99l13.46-47.03Z" />
      <path class="cls-1"
        d="m225.43,108.04h57.17c1.57,0,3.02.23,4.33.7,1.31.47,2.37,1.14,3.19,2.01.82.87,1.36,1.94,1.62,3.19s.16,2.67-.31,4.24l-6.56,22.99c-.41,1.4-1.08,2.67-2.01,3.8-.93,1.14-2.01,2.13-3.23,2.97-1.22.85-2.55,1.54-3.98,2.1-1.43.55-2.84.95-4.24,1.18l9.88,15.12h-20.54l-10.49-15.04h-11.71l-4.28,15.04h-18.1l13.46-47.03-4.2-11.28Zm17.66,27.54h25.26l3.41-11.8h-25.26l-3.41,11.8Z" />
    </g>
    <g>
      <path class="cls-1"
        d="m75.56,170.72h57.18c1.57,0,3.02.23,4.33.7,1.31.47,2.37,1.14,3.19,2.01.82.87,1.35,1.94,1.62,3.19.26,1.25.16,2.67-.31,4.24l-10.93,38.03c-.47,1.57-1.18,2.99-2.14,4.24s-2.1,2.32-3.41,3.19c-1.31.88-2.75,1.54-4.33,2.01-1.57.47-3.15.7-4.72.7h-49.75l13.46-47.04-4.2-11.28Zm46.34,15.74h-25.27l-7.69,26.84h25.27l7.69-26.84Z" />
      <path class="cls-1"
        d="m166.91,182l-4.2-11.28h36.81l8.66,58.31h-20.02l-1.14-8.22h-28.15l-5.77,8.22-27.54,10.49,41.35-57.53Zm3.23,22.99h14.69l-2.27-17.31-12.42,17.31Z" />
      <path class="cls-1"
        d="m287.21,180.86l-10.93,38.03c-.47,1.57-1.18,2.99-2.14,4.24s-2.1,2.32-3.41,3.19c-1.31.88-2.75,1.54-4.33,2.01s-3.15.7-4.72.7h-38.03c-1.57,0-3-.23-4.28-.7-1.28-.47-2.33-1.14-3.15-2.01-.82-.87-1.37-1.94-1.66-3.19-.29-1.25-.2-2.67.26-4.24l10.93-38.03c.47-1.57,1.18-2.99,2.14-4.24.96-1.25,2.1-2.32,3.41-3.19s2.75-1.54,4.33-2.01c1.57-.47,3.15-.7,4.72-.7h38.03c1.57,0,3.02.23,4.33.7,1.31.47,2.37,1.14,3.19,2.01.82.87,1.36,1.94,1.62,3.19.26,1.25.16,2.67-.31,4.24Zm-27.36,32.44l7.69-26.84h-25.27l-7.69,26.84h25.27Z" />
    </g>
  </g>
</svg>